<?xml version="1.0" encoding="iso-8859-1"?>
<!-- Generator: Adobe Illustrator 19.0.0, SVG Export Plug-In . SVG Version: 6.00 Build 0)  -->
<svg version="1.1" id="Capa_1" xmlns="http://www.w3.org/2000/svg" xmlns:xlink="http://www.w3.org/1999/xlink" x="0px" y="0px"
	 viewBox="0 0 512 512" style="enable-background:new 0 0 512 512;" xml:space="preserve">
<g>
	<g>
		<path d="M287.702,271h-54.591v65.881h54.591c18.163,0,32.941-14.777,32.941-32.94C320.643,285.778,305.865,271,287.702,271z"/>
	</g>
</g>
<g>
	<g>
		<path d="M287.702,175.119h-54.591V241h54.591c18.163,0,32.941-14.777,32.941-32.94S305.866,175.119,287.702,175.119z"/>
	</g>
</g>
<g>
	<g>
		<path d="M256,80.333c-96.863,0-175.667,78.804-175.667,175.667S159.137,431.667,256,431.667S431.667,352.863,431.667,256
			S352.863,80.333,256,80.333z M350.643,303.94c0,34.705-28.235,62.94-62.941,62.94h-10.517v25.208h-30V366.88h-70.828v-30h26.754
			V175.119h-26.754v-30h70.828v-25.208h30v25.208h10.517c34.705,0,62.941,28.235,62.941,62.941c0,19.188-8.641,36.386-22.225,47.94
			C342.001,267.554,350.643,284.753,350.643,303.94z"/>
	</g>
</g>
<g>
	<g>
		<path d="M437.02,74.98C388.667,26.629,324.38,0,256,0S123.333,26.629,74.98,74.98C26.629,123.333,0,187.62,0,256
			s26.629,132.667,74.98,181.02C123.333,485.371,187.62,512,256,512s132.667-26.629,181.02-74.98
			C485.371,388.667,512,324.38,512,256S485.371,123.333,437.02,74.98z M256,461.667c-113.405,0-205.667-92.262-205.667-205.667
			S142.595,50.333,256,50.333S461.667,142.595,461.667,256S369.405,461.667,256,461.667z"/>
	</g>
</g>
<g>
</g>
<g>
</g>
<g>
</g>
<g>
</g>
<g>
</g>
<g>
</g>
<g>
</g>
<g>
</g>
<g>
</g>
<g>
</g>
<g>
</g>
<g>
</g>
<g>
</g>
<g>
</g>
<g>
</g>
</svg>
