<?xml version="1.0" encoding="iso-8859-1"?>
<!-- Generator: Adobe Illustrator 19.0.0, SVG Export Plug-In . SVG Version: 6.00 Build 0)  -->
<svg version="1.1" id="Capa_1" xmlns="http://www.w3.org/2000/svg" xmlns:xlink="http://www.w3.org/1999/xlink" x="0px" y="0px"
	 viewBox="0 0 512 512" style="enable-background:new 0 0 512 512;" xml:space="preserve">
<g>
	<g>
		<g>
			<path d="M426.667,341.333c-47.128,0-85.333,38.205-85.333,85.333S379.538,512,426.667,512S512,473.795,512,426.667
				S473.795,341.333,426.667,341.333z M426.667,469.333c-23.564,0-42.667-19.103-42.667-42.667S403.103,384,426.667,384
				s42.667,19.103,42.667,42.667S450.231,469.333,426.667,469.333z"/>
			<path d="M149.333,469.333H128V448c0-11.782-9.551-21.333-21.333-21.333H64c-11.782,0-21.333,9.551-21.333,21.333v21.333H21.333
				C9.551,469.333,0,478.885,0,490.667V512h170.667v-21.333C170.667,478.885,161.115,469.333,149.333,469.333z"/>
			<path d="M320,426.667C320,367.756,367.756,320,426.667,320H448v-42.667c0-58.91-47.756-106.667-106.667-106.667V64
				c0-35.346-28.654-64-64-64H128C92.654,0,64,28.654,64,64v341.333h42.667V64c0-11.782,9.551-21.333,21.333-21.333h149.333
				c11.782,0,21.333,9.551,21.333,21.333v106.667c-58.91,0-106.667,47.756-106.667,106.667V448c0,35.346,28.654,64,64,64h106.667
				C335.807,491.856,320,460.241,320,426.667z M298.667,384H256v-42.667h42.667V384z M298.667,320H256v-64h42.667V320z"/>
		</g>
	</g>
</g>
<g>
</g>
<g>
</g>
<g>
</g>
<g>
</g>
<g>
</g>
<g>
</g>
<g>
</g>
<g>
</g>
<g>
</g>
<g>
</g>
<g>
</g>
<g>
</g>
<g>
</g>
<g>
</g>
<g>
</g>
</svg>
