<?xml version="1.0" encoding="iso-8859-1"?>
<!-- Generator: Adobe Illustrator 16.0.0, SVG Export Plug-In . SVG Version: 6.00 Build 0)  -->
<!DOCTYPE svg PUBLIC "-//W3C//DTD SVG 1.1//EN" "http://www.w3.org/Graphics/SVG/1.1/DTD/svg11.dtd">
<svg version="1.1" id="Capa_1" xmlns="http://www.w3.org/2000/svg" xmlns:xlink="http://www.w3.org/1999/xlink" x="0px" y="0px"
	 width="50px" height="50px" viewBox="0 0 50 50" style="enable-background:new 0 0 50 50;" xml:space="preserve">
<g>
	<g>
		<path d="M25.004,50c-3.694,0-6.642-2.667-7.379-6.143l14.757-0.021C31.652,47.326,28.708,50,25.004,50z"/>
		<path d="M32.693,42.302c0,0-0.008,0.011-0.008,0.019l-15.36,0.029c0-0.022-0.01-0.033-0.01-0.048v-0.954l15.378-0.031V42.302z"/>
		<path d="M25.004,0C15.171,0,7.199,7.964,7.199,17.795c0,13.278,9.356,14.898,9.974,22.038l15.649-0.031
			c0.662-7.114,9.979-8.753,9.979-22.007C42.802,7.964,34.843,0,25.004,0z M34.668,21.909c-2.308,1.35-1.089-4.064-3.606-8.41
			c-2.51-4.345-7.797-5.982-5.479-7.337c2.333-1.337,7.239,0.521,9.749,4.868C37.831,15.394,36.998,20.574,34.668,21.909z"/>
	</g>
</g>
<g>
</g>
<g>
</g>
<g>
</g>
<g>
</g>
<g>
</g>
<g>
</g>
<g>
</g>
<g>
</g>
<g>
</g>
<g>
</g>
<g>
</g>
<g>
</g>
<g>
</g>
<g>
</g>
<g>
</g>
</svg>
