<?xml version='1.0' encoding='iso-8859-1'?>
<!DOCTYPE svg PUBLIC '-//W3C//DTD SVG 1.1//EN' 'http://www.w3.org/Graphics/SVG/1.1/DTD/svg11.dtd'>
<svg version="1.1" xmlns="http://www.w3.org/2000/svg" viewBox="0 0 296.667 296.667" xmlns:xlink="http://www.w3.org/1999/xlink" enable-background="new 0 0 296.667 296.667">
  <g>
    <path d="M296.667,12.5c0-6.903-5.597-12.5-12.5-12.5H12.5C5.597,0,0,5.597,0,12.5v271.666c0,6.903,5.597,12.5,12.5,12.5h271.667   c6.903,0,12.5-5.597,12.5-12.5V12.5z M38.655,48c0-6.903,5.597-12.5,12.5-12.5s12.5,5.597,12.5,12.5v16.5h169.356V48   c0-6.903,5.597-12.5,12.5-12.5c6.903,0,12.5,5.597,12.5,12.5v29c0,6.903-5.597,12.5-12.5,12.5H51.155   c-6.903,0-12.5-5.597-12.5-12.5V48z M258.314,248.333c0,6.903-5.597,12.5-12.5,12.5H51.155c-6.903,0-12.5-5.597-12.5-12.5v-118   c0-6.903,5.597-12.5,12.5-12.5h194.659c6.903,0,12.5,5.597,12.5,12.5V248.333z"/>
    <path d="m179.108,161.337c0.79-0.016 0.188-0.008 0.351-0.014-4.598-0.606-18.314-1.733-29.877-8.285-9.475-4.986-24.642-15.274-47.943-8.047-12.44,3.718-22.585,11.21-28.892,18.999-0.865,1.068-0.917,2.579-0.128,3.704 0.789,1.125 2.228,1.593 3.527,1.143 7.868-2.728 18.275-5.247 28.595-5.338 3.768-0.035 6.889,0.361 9.082,0.525-1.03-0.025-0.252-0.002-0.466-0.005 21.919,3.283 24.557,21.5 65.896,19.363 1.378-0.045 10.636-1.266 15.697-3.028 11.904-3.535 22.209-10.773 28.707-18.487 0.892-1.059 0.967-2.583 0.184-3.725-0.783-1.142-2.232-1.619-3.542-1.168-13.614,4.686-26.863,5.17-41.191,4.363z"/>
    <path d="m191.598,213.816c-3.099,0.188-9.956-0.336-12.49-0.479 0.79-0.016 0.188-0.008 0.351-0.014-29.026-3.826-24.701-7.53-45.529-15.997-6.327-2.013-16.549-5.218-32.292-0.335-12.375,3.698-22.508,11.013-28.873,18.911-0.864,1.072-0.911,2.586-0.116,3.71 0.795,1.123 2.239,1.581 3.537,1.124 11.39-4.011 24.012-5.725 37.635-4.711-1.03-0.025-0.252-0.002-0.466-0.005 12.528,1.877 11.529,4.528 28.602,13.145 30.53,14.28 66.678,3.742 82.193-15.683 0.85-1.064 0.899-2.559 0.123-3.677s-2.197-1.595-3.489-1.169c-8.906,2.935-20.028,5.139-29.186,5.18z"/>
  </g>
</svg>
