<?xml version="1.0" encoding="iso-8859-1"?>
<!-- Generator: Adobe Illustrator 19.0.0, SVG Export Plug-In . SVG Version: 6.00 Build 0)  -->
<svg version="1.1" id="Capa_1" xmlns="http://www.w3.org/2000/svg" xmlns:xlink="http://www.w3.org/1999/xlink" x="0px" y="0px"
	 viewBox="0 0 512.009 512.009" style="enable-background:new 0 0 512.009 512.009;" xml:space="preserve">
<g>
	<g>
		<path d="M451.925,193.882c-1.314-4.523-6.042-7.142-10.581-5.803c-4.523,1.314-7.125,6.05-5.811,10.573
			c5.393,18.552,8.132,37.854,8.132,57.353c0,19.567-2.756,38.929-8.183,57.532c-1.323,4.523,1.271,9.259,5.803,10.581
			c0.802,0.23,1.604,0.341,2.398,0.341c3.695,0,7.1-2.415,8.183-6.144c5.888-20.156,8.875-41.122,8.875-62.319
			C460.74,234.876,457.771,213.978,451.925,193.882z"/>
	</g>
</g>
<g>
	<g>
		<path d="M76.518,313.545c-5.444-18.611-8.192-37.973-8.192-57.54c0-19.499,2.739-38.801,8.132-57.353
			c1.314-4.523-1.28-9.259-5.811-10.573c-4.506-1.314-9.259,1.271-10.573,5.811c-5.854,20.096-8.815,41.003-8.815,62.114
			c0,21.188,2.987,42.155,8.875,62.319c1.084,3.729,4.489,6.144,8.183,6.144c0.794,0,1.596-0.111,2.398-0.341
			C75.238,322.803,77.833,318.067,76.518,313.545z"/>
	</g>
</g>
<g>
	<g>
		<path d="M33.399,346.389c-10.53-23.56-16.324-55.654-16.324-90.385c0-34.731,5.794-66.825,16.324-90.385
			c1.911-4.309-0.017-9.353-4.318-11.273c-4.318-1.937-9.352,0.017-11.273,4.309C6.323,184.358,0,218.927,0,256.004
			c0,37.077,6.323,71.646,17.809,97.348c1.417,3.166,4.531,5.052,7.799,5.052c1.161,0,2.347-0.23,3.482-0.742
			C33.391,355.733,35.319,350.699,33.399,346.389z"/>
	</g>
</g>
<g>
	<g>
		<path d="M494.191,158.656c-1.92-4.292-6.955-6.221-11.273-4.309c-4.301,1.929-6.229,6.963-4.309,11.273
			c10.53,23.561,16.324,55.654,16.324,90.385c0,34.731-5.794,66.825-16.324,90.385c-1.92,4.309,0.009,9.353,4.309,11.273
			c1.135,0.512,2.313,0.742,3.482,0.742c3.26,0,6.383-1.886,7.799-5.052c11.486-25.702,17.809-60.271,17.809-97.348
			C512.009,218.927,505.677,184.358,494.191,158.656z"/>
	</g>
</g>
<g>
	<g>
		<path d="M373.197,0.004H138.795c-20.07,0-36.403,16.333-36.403,36.403v31.863h307.2V36.407
			C409.6,16.337,393.267,0.004,373.197,0.004z M298.667,51.204h-85.333c-4.71,0-8.533-3.823-8.533-8.533s3.823-8.533,8.533-8.533
			h85.333c4.71,0,8.533,3.823,8.533,8.533S303.377,51.204,298.667,51.204z"/>
	</g>
</g>
<g>
	<g>
		<path d="M102.409,443.738v31.863H102.4c0,20.07,16.333,36.403,36.403,36.403h234.402c20.07,0,36.403-16.333,36.403-36.403v-31.863
			H102.409z M187.733,477.871H153.6c-4.71,0-8.533-3.823-8.533-8.533s3.823-8.533,8.533-8.533h34.133
			c4.71,0,8.533,3.823,8.533,8.533S192.444,477.871,187.733,477.871z M281.6,477.871h-51.2c-4.71,0-8.533-3.823-8.533-8.533
			s3.823-8.533,8.533-8.533h51.2c4.71,0,8.533,3.823,8.533,8.533S286.31,477.871,281.6,477.871z M358.4,477.871h-34.133
			c-4.71,0-8.533-3.823-8.533-8.533s3.823-8.533,8.533-8.533H358.4c4.71,0,8.533,3.823,8.533,8.533S363.11,477.871,358.4,477.871z"
			/>
	</g>
</g>
<g>
	<g>
		<path d="M153.6,307.204v119.467h119.467V307.204H153.6z M179.2,324.271h17.067c4.71,0,8.533,3.814,8.533,8.533
			s-3.823,8.533-8.533,8.533H179.2c-4.71,0-8.533-3.814-8.533-8.533S174.49,324.271,179.2,324.271z M196.267,409.604H179.2
			c-4.71,0-8.533-3.814-8.533-8.533s3.823-8.533,8.533-8.533h17.067c4.71,0,8.533,3.814,8.533,8.533
			S200.977,409.604,196.267,409.604z M247.467,409.604H230.4c-4.71,0-8.533-3.814-8.533-8.533s3.823-8.533,8.533-8.533h17.067
			c4.71,0,8.533,3.814,8.533,8.533S252.177,409.604,247.467,409.604z M247.467,375.471H179.2c-4.71,0-8.533-3.814-8.533-8.533
			c0-4.719,3.823-8.533,8.533-8.533h68.267c4.71,0,8.533,3.814,8.533,8.533C256,371.657,252.177,375.471,247.467,375.471z
			 M247.467,341.338H230.4c-4.71,0-8.533-3.814-8.533-8.533s3.823-8.533,8.533-8.533h17.067c4.71,0,8.533,3.814,8.533,8.533
			S252.177,341.338,247.467,341.338z"/>
	</g>
</g>
<g>
	<g>
		<path d="M153.6,128.004v119.467h204.8V128.004H153.6z M321.766,202.304c-1.664,1.664-3.849,2.5-6.033,2.5
			c-2.185,0-4.369-0.836-6.033-2.5l-28.1-28.1l-22.067,22.067l11.034,11.034c3.337,3.337,3.337,8.73,0,12.066
			c-1.664,1.664-3.849,2.5-6.033,2.5c-2.185,0-4.369-0.836-6.033-2.5l-28.1-28.1l-28.1,28.1c-1.664,1.664-3.849,2.5-6.033,2.5
			c-2.185,0-4.369-0.836-6.033-2.5c-3.336-3.336-3.336-8.73,0-12.066l34.133-34.133c3.337-3.337,8.73-3.337,12.066,0l11.034,11.034
			l28.1-28.1c3.336-3.337,8.73-3.337,12.066,0l34.133,34.133C325.094,193.574,325.094,198.968,321.766,202.304z"/>
	</g>
</g>
<g>
	<g>
		<path d="M102.4,85.338v341.333h34.133v-128c0-4.719,3.823-8.533,8.533-8.533H281.6c4.71,0,8.533,3.814,8.533,8.533v128H409.6
			V85.338H102.4z M375.467,349.871c0,4.719-3.823,8.533-8.533,8.533h-51.2c-4.71,0-8.533-3.814-8.533-8.533v-51.2
			c0-4.719,3.823-8.533,8.533-8.533h51.2c4.71,0,8.533,3.814,8.533,8.533V349.871z M375.467,256.004
			c0,4.719-3.823,8.533-8.533,8.533H145.067c-4.71,0-8.533-3.814-8.533-8.533V119.471c0-4.719,3.823-8.533,8.533-8.533h221.867
			c4.71,0,8.533,3.814,8.533,8.533V256.004z"/>
	</g>
</g>
<g>
	<g>
		<rect x="324.275" y="307.204" width="34.133" height="34.133"/>
	</g>
</g>
<g>
</g>
<g>
</g>
<g>
</g>
<g>
</g>
<g>
</g>
<g>
</g>
<g>
</g>
<g>
</g>
<g>
</g>
<g>
</g>
<g>
</g>
<g>
</g>
<g>
</g>
<g>
</g>
<g>
</g>
</svg>
