<svg height="512pt" viewBox="0 -33 512 512" width="512pt" xmlns="http://www.w3.org/2000/svg"><path d="m31.683594 94.667969-12.164063 78.105469h137.574219l4.054688-78.105469zm0 0"/><path d="m320.8125 94.667969h-129.625l-4.054688 78.105469h137.734376zm0 0"/><path d="m326.425781 202.773438h-140.851562l-4.949219 95.347656h150.75zm0 0"/><path d="m497.152344 202.773438h-140.691406l4.949218 95.347656h150.589844zm0 0"/><path d="m192.746094 64.667969h126.507812l-3.355468-64.667969h-119.796876zm0 0"/><path d="m155.539062 202.773438h-140.691406l-14.847656 95.347656h150.589844zm0 0"/><path d="m301.074219 328.121094v2.972656c0 14.46875-11.769531 26.242188-26.242188 26.242188h-37.664062c-14.472657 0-26.242188-11.773438-26.242188-26.242188v-2.972656h-29.996093v2.972656c0 31.011719 25.226562 56.238281 56.238281 56.238281h3.832031v28.195313h-42.09375v29.996094h114.1875v-29.996094h-42.09375v-28.195313h3.832031c31.011719 0 56.238281-25.226562 56.238281-56.238281v-2.972656zm0 0"/><path d="m480.316406 94.667969h-129.464844l4.054688 78.105469h137.574219zm0 0"/><path d="m345.9375 0 3.355469 64.667969h126.351562l-10.070312-64.667969zm0 0"/><path d="m162.707031 64.667969 3.355469-64.667969h-119.636719l-10.070312 64.667969zm0 0"/></svg>