<svg id="Capa_1" enable-background="new 0 0 512 512" height="512" viewBox="0 0 512 512" width="512" xmlns="http://www.w3.org/2000/svg"><g><path d="m349.262 139.655c-40.118-66.332-93.262-139.655-93.262-139.655s-53.144 73.323-93.262 139.655c-54.852 90.694-82.665 156.78-82.665 196.419.001 97.006 78.921 175.926 175.927 175.926s175.926-78.92 175.926-175.926c0-39.639-27.812-105.725-82.664-196.419zm-93.262 312.756c-64.072 0-116.199-52.126-116.199-116.199s52.127-116.199 116.199-116.199 116.199 52.126 116.199 116.199-52.127 116.199-116.199 116.199z"/><path d="m256 249.808c-47.644 0-86.404 38.76-86.404 86.404s38.76 86.404 86.404 86.404 86.404-38.76 86.404-86.404-38.76-86.404-86.404-86.404zm-15.379 140.038 3.646-38.594-22.535-.13 49.717-68.603-3.696 38.653 22.503.13z"/></g></svg>