<?xml version="1.0" encoding="utf-8"?>
<!-- Generator: Adobe Illustrator 21.1.0, SVG Export Plug-In . SVG Version: 6.00 Build 0)  -->
<svg version="1.1" id="Calque_1" xmlns="http://www.w3.org/2000/svg" xmlns:xlink="http://www.w3.org/1999/xlink" x="0px" y="0px"
	 viewBox="0 0 64 64" style="enable-background:new 0 0 64 64;" xml:space="preserve">
<style type="text/css">
	.st0{fill:#010101;}
</style>
<path class="st0" d="M56.9,73.1l0-18.7c0-5-1.8-9.4-5.4-13c-3.7-3.7-8.1-5.5-13.3-5.4V28c5.2,0.1,9.7-1.8,13.4-5.4
	c3.6-3.6,5.4-7.9,5.4-12.9l0-18.6c0.1-5-1.7-9.4-5.4-13c-3.6-3.6-7.9-5.4-12.9-5.4l-13.2,0c-5-0.1-9.4,1.7-13,5.3
	c-3.6,3.6-5.4,7.9-5.4,13l0,18.7c0,5,1.8,9.4,5.4,13c3.7,3.7,8.1,5.5,13.3,5.4l0,7.9c-5.2-0.1-9.7,1.8-13.4,5.4
	C8.9,45,7.1,49.3,7.1,54.3l0,18.6c-0.1,5,1.7,9.4,5.4,13c3.6,3.6,7.9,5.4,12.9,5.4l13.2,0c5,0.1,9.4-1.7,13-5.3
	C55.1,82.4,56.9,78.1,56.9,73.1z M38.1,15.8c0-0.2,0-0.7,0-1.7c0-0.9,0-1.6,0-1.9c0-0.3-0.1-0.9-0.2-1.5c-0.1-0.7-0.3-1.3-0.6-1.7
	c-0.3-0.5-0.6-0.9-1.1-1.4c-1.2-1.2-2.6-1.8-4.3-1.8c-1.7,0-3.1,0.6-4.3,1.8c-0.5,0.5-0.8,0.9-1.1,1.4c-0.3,0.5-0.5,1.1-0.6,1.7
	c-0.1,0.7-0.2,1.2-0.2,1.5c0,0.3,0,1,0,1.9c0,0.9,0,1.5,0,1.7c-1.8,0-3.4-0.6-4.6-1.8c-1.2-1.2-1.8-2.7-1.8-4.3l0-18.7
	c0-1.7,0.6-3.1,1.8-4.3c1.2-1.2,2.6-1.8,4.3-1.8l13.2,0c1.7,0.1,3.1,0.7,4.3,1.8c1.2,1.2,1.8,2.6,1.8,4.3l0,18.6
	c0,1.7-0.6,3.1-1.8,4.3C41.6,15.2,40,15.8,38.1,15.8z M38.5,79.2l-13.2,0c-1.6-0.1-3-0.7-4.2-1.9c-1.2-1.2-1.8-2.7-1.8-4.3l0-18.6
	c0-1.7,0.6-3.1,1.8-4.3c1.3-1.3,2.9-1.9,4.8-1.8c0,0.2,0,0.7,0,1.7c0,0.9,0,1.6,0,1.9c0,0.3,0.1,0.9,0.2,1.5
	c0.1,0.7,0.3,1.3,0.6,1.7c0.3,0.5,0.6,0.9,1.1,1.4c1.2,1.2,2.6,1.8,4.3,1.8c1.7,0,3.1-0.6,4.3-1.8c0.5-0.5,0.8-0.9,1.1-1.4
	c0.3-0.5,0.5-1.1,0.6-1.7c0.1-0.7,0.2-1.2,0.2-1.5c0-0.3,0-1,0-1.9c0-0.9,0-1.5,0-1.7c1.9-0.1,3.4,0.5,4.7,1.8
	c1.2,1.2,1.8,2.6,1.8,4.3l0,18.7c0,1.7-0.6,3.1-1.8,4.3C41.6,78.6,40.2,79.2,38.5,79.2z"/>
</svg>
