<?xml version="1.0"?>
<svg xmlns="http://www.w3.org/2000/svg" id="Capa_1" enable-background="new 0 0 512 512" height="512px" viewBox="0 0 512 512" width="512px"><g><path d="m256 87c-93.187 0-169 75.813-169 169s75.813 169 169 169 169-75.813 169-169-75.813-169-169-169zm29.667 261.569h-14.667v32.723h-30v-32.723h-61.66v-30h25.603v-125.138h-25.603v-30h61.66v-32.723h30v32.723h5.215c29.657 0 53.785 24.127 53.785 53.784 0 13.035-4.664 24.999-12.406 34.318 13.249 9.806 21.858 25.54 21.858 43.251-.001 29.657-24.129 53.785-53.785 53.785z" data-original="#000000" class="active-path" data-old_color="#000000" fill="#FECE2F"/><path d="m276.215 241c13.115 0 23.785-10.67 23.785-23.785s-10.67-23.784-23.785-23.784h-41.273v47.569z" data-original="#000000" class="active-path" data-old_color="#000000" fill="#FECE2F"/><path d="m285.667 271h-50.724v47.569h50.724c13.115 0 23.785-10.669 23.785-23.784s-10.671-23.785-23.785-23.785z" data-original="#000000" class="active-path" data-old_color="#000000" fill="#FECE2F"/><path d="m437.02 74.98c-48.353-48.351-112.64-74.98-181.02-74.98s-132.667 26.629-181.02 74.98c-48.351 48.353-74.98 112.64-74.98 181.02s26.629 132.667 74.98 181.02c48.353 48.351 112.64 74.98 181.02 74.98s132.667-26.629 181.02-74.98c48.351-48.353 74.98-112.64 74.98-181.02s-26.629-132.667-74.98-181.02zm-181.02 380.02c-109.729 0-199-89.271-199-199s89.271-199 199-199 199 89.271 199 199-89.271 199-199 199z" data-original="#000000" class="active-path" data-old_color="#000000" fill="#FECE2F"/></g> </svg>
